#Comment line ignore any data following # character 
#Hierarchical Translation and Rotation (.htr) file 
[Header]	
#Header keywords are followed by a single value 
FileType HTR		#Single word string
DataType HTRS		#Translation followed by rotation and scale data
FileVersion 1		#integer
NumSegments 84		#integer
NumFrames 2		#integer
DataFrameRate 30		#integer, data frame rate in this file
EulerRotationOrder ZYX
CalibrationUnits mm
RotationUnits Degrees
GlobalAxisofGravity Y
BoneLengthAxis Y
ScaleFactor 1.00
[SegmentNames&Hierarchy]
#CHILD	PARENT
MASTER GLOBAL
root MASTER
chest root
L_mid_tent01 root
R_mid_tent01 root
spine01 root
Bip01_Neck chest
L_humerus chest
R_humerus chest
weapon_bone chest
Bip01_Head Bip01_Neck
eye_left_bone Bip01_Head
eye_right_bone Bip01_Head
L_forearm L_humerus
L_front_hand L_forearm
L_weapon_bone L_forearm
L_front_hand01_01 L_front_hand
L_front_hand02_01 L_front_hand
L_front_hand03_01 L_front_hand
L_front_hand01_02 L_front_hand01_01
L_front_hand02_02 L_front_hand02_01
L_front_hand03_02 L_front_hand03_01
R_forearm R_humerus
R_front_hand R_forearm
R_weapon_bone R_forearm
R_front_hand01_01 R_front_hand
R_front_hand02_01 R_front_hand
R_front_hand03_01 R_front_hand
R_front_hand01_02 R_front_hand01_01
R_front_hand02_02 R_front_hand02_01
R_front_hand03_02 R_front_hand03_01
null_rope01_connect L_mid_tent01
Rope1_Seg01 null_rope01_connect
Rope1_Seg02 Rope1_Seg01
Rope1_Seg03 Rope1_Seg02
Rope1_Seg04 Rope1_Seg03
Rope1_Seg05 Rope1_Seg04
Rope1_Seg06 Rope1_Seg05
Rope1_Seg07 Rope1_Seg06
Rope1_Seg09 Rope1_Seg07
L_mid_hand01 Rope1_Seg09
L_mid_hand02 Rope1_Seg09
L_mid_hand03 Rope1_Seg09
null_rope02_connect R_mid_tent01
Rope2_Seg01 null_rope02_connect
Rope2_Seg02 Rope2_Seg01
Rope2_Seg03 Rope2_Seg02
Rope2_Seg04 Rope2_Seg03
Rope2_Seg05 Rope2_Seg04
Rope2_Seg06 Rope2_Seg05
Rope2_Seg07 Rope2_Seg06
Rope2_Seg09 Rope2_Seg07
R_mid_hand01 Rope2_Seg09
R_mid_hand02 Rope2_Seg09
R_mid_hand03 Rope2_Seg09
spine02 spine01
spine03 spine02
pelvis spine03
null_rope03_connect pelvis
null_rope04_connect pelvis
Rope3_Seg01 null_rope03_connect
Rope3_Seg02 Rope3_Seg01
Rope3_Seg03 Rope3_Seg02
Rope3_Seg04 Rope3_Seg03
Rope3_Seg05 Rope3_Seg04
Rope3_Seg06 Rope3_Seg05
Rope3_Seg07 Rope3_Seg06
Rope3_Seg08 Rope3_Seg07
Rope3_Seg09 Rope3_Seg08
R_rear_hand01 Rope3_Seg09
R_rear_hand02 Rope3_Seg09
R_rear_hand03 Rope3_Seg09
Rope4_Seg01 null_rope04_connect
Rope4_Seg02 Rope4_Seg01
Rope4_Seg03 Rope4_Seg02
Rope4_Seg04 Rope4_Seg03
Rope4_Seg05 Rope4_Seg04
Rope4_Seg06 Rope4_Seg05
Rope4_Seg07 Rope4_Seg06
Rope4_Seg08 Rope4_Seg07
Rope4_Seg09 Rope4_Seg08
L_rear_hand01 Rope4_Seg09
L_rear_hand02 Rope4_Seg09
L_rear_hand03 Rope4_Seg09
[BasePosition]
#SegmentName Tx, Ty, Tz, Rx, Ry, Rz, BoneLength
MASTER 0.000000 0.000000 0.000000 -90.000000 0.000000 0.000000 10.000000 
root 0.000000 0.000000 0.000000 0.000000 0.000000 0.000000 10.000000 
chest 0.000000 0.000000 0.000000 0.000000 0.000000 0.000000 10.000000 
L_mid_tent01 0.000000 0.000000 0.000000 0.000000 0.000000 0.000000 10.000000 
R_mid_tent01 0.000000 0.000000 0.000000 0.000000 0.000000 0.000000 10.000000 
spine01 0.000000 0.000000 0.000000 0.000000 0.000000 0.000000 10.000000 
Bip01_Neck 0.000000 0.000000 0.000000 0.000000 0.000000 0.000000 10.000000 
L_humerus 0.000000 0.000000 0.000000 0.000000 0.000000 0.000000 10.000000 
R_humerus 0.000000 0.000000 0.000000 0.000000 0.000000 0.000000 10.000000 
weapon_bone 0.000000 0.000000 0.000000 0.000000 0.000000 0.000000 10.000000 
Bip01_Head 0.000000 0.000000 0.000000 0.000000 0.000000 0.000000 10.000000 
eye_left_bone 0.000000 0.000000 0.000000 0.000000 0.000000 0.000000 10.000000 
eye_right_bone 0.000000 0.000000 0.000000 0.000000 0.000000 0.000000 10.000000 
L_forearm 0.000000 0.000000 0.000000 0.000000 0.000000 0.000000 10.000000 
L_front_hand 0.000000 0.000000 0.000000 0.000000 0.000000 0.000000 10.000000 
L_weapon_bone 0.000000 0.000000 0.000000 0.000000 0.000000 0.000000 10.000000 
L_front_hand01_01 0.000000 0.000000 0.000000 0.000000 0.000000 0.000000 10.000000 
L_front_hand02_01 0.000000 0.000000 0.000000 0.000000 0.000000 0.000000 10.000000 
L_front_hand03_01 0.000000 0.000000 0.000000 0.000000 0.000000 0.000000 10.000000 
L_front_hand01_02 0.000000 0.000000 0.000000 0.000000 0.000000 0.000000 10.000000 
L_front_hand02_02 0.000000 0.000000 0.000000 0.000000 0.000000 0.000000 10.000000 
L_front_hand03_02 0.000000 0.000000 0.000000 0.000000 0.000000 0.000000 10.000000 
R_forearm 0.000000 0.000000 0.000000 0.000000 0.000000 0.000000 10.000000 
R_front_hand 0.000000 0.000000 0.000000 0.000000 0.000000 0.000000 10.000000 
R_weapon_bone 0.000000 0.000000 0.000000 0.000000 0.000000 0.000000 10.000000 
R_front_hand01_01 0.000000 0.000000 0.000000 0.000000 0.000000 0.000000 10.000000 
R_front_hand02_01 0.000000 0.000000 0.000000 0.000000 0.000000 0.000000 10.000000 
R_front_hand03_01 0.000000 0.000000 0.000000 0.000000 0.000000 0.000000 10.000000 
R_front_hand01_02 0.000000 0.000000 0.000000 0.000000 0.000000 0.000000 10.000000 
R_front_hand02_02 0.000000 0.000000 0.000000 0.000000 0.000000 0.000000 10.000000 
R_front_hand03_02 0.000000 0.000000 0.000000 0.000000 0.000000 0.000000 10.000000 
null_rope01_connect 0.000000 0.000000 0.000000 0.000000 0.000000 0.000000 10.000000 
Rope1_Seg01 0.000000 0.000000 0.000000 0.000000 0.000000 0.000000 10.000000 
Rope1_Seg02 0.000000 0.000000 0.000000 0.000000 0.000000 0.000000 10.000000 
Rope1_Seg03 0.000000 0.000000 0.000000 0.000000 0.000000 0.000000 10.000000 
Rope1_Seg04 0.000000 0.000000 0.000000 0.000000 0.000000 0.000000 10.000000 
Rope1_Seg05 0.000000 0.000000 0.000000 0.000000 0.000000 0.000000 10.000000 
Rope1_Seg06 0.000000 0.000000 0.000000 0.000000 0.000000 0.000000 10.000000 
Rope1_Seg07 0.000000 0.000000 0.000000 0.000000 0.000000 0.000000 10.000000 
Rope1_Seg09 0.000000 0.000000 0.000000 0.000000 0.000000 0.000000 10.000000 
L_mid_hand01 0.000000 0.000000 0.000000 0.000000 0.000000 0.000000 10.000000 
L_mid_hand02 0.000000 0.000000 0.000000 0.000000 0.000000 0.000000 10.000000 
L_mid_hand03 0.000000 0.000000 0.000000 0.000000 0.000000 0.000000 10.000000 
null_rope02_connect 0.000000 0.000000 0.000000 0.000000 0.000000 0.000000 10.000000 
Rope2_Seg01 0.000000 0.000000 0.000000 0.000000 0.000000 0.000000 10.000000 
Rope2_Seg02 0.000000 0.000000 0.000000 0.000000 0.000000 0.000000 10.000000 
Rope2_Seg03 0.000000 0.000000 0.000000 0.000000 0.000000 0.000000 10.000000 
Rope2_Seg04 0.000000 0.000000 0.000000 0.000000 0.000000 0.000000 10.000000 
Rope2_Seg05 0.000000 0.000000 0.000000 0.000000 0.000000 0.000000 10.000000 
Rope2_Seg06 0.000000 0.000000 0.000000 0.000000 0.000000 0.000000 10.000000 
Rope2_Seg07 0.000000 0.000000 0.000000 0.000000 0.000000 0.000000 10.000000 
Rope2_Seg09 0.000000 0.000000 0.000000 0.000000 0.000000 0.000000 10.000000 
R_mid_hand01 0.000000 0.000000 0.000000 0.000000 0.000000 0.000000 10.000000 
R_mid_hand02 0.000000 0.000000 0.000000 0.000000 0.000000 0.000000 10.000000 
R_mid_hand03 0.000000 0.000000 0.000000 0.000000 0.000000 0.000000 10.000000 
spine02 0.000000 0.000000 0.000000 0.000000 0.000000 0.000000 10.000000 
spine03 0.000000 0.000000 0.000000 0.000000 0.000000 0.000000 10.000000 
pelvis 0.000000 0.000000 0.000000 0.000000 0.000000 0.000000 10.000000 
null_rope03_connect 0.000000 0.000000 0.000000 0.000000 0.000000 0.000000 10.000000 
null_rope04_connect 0.000000 0.000000 0.000000 0.000000 0.000000 0.000000 10.000000 
Rope3_Seg01 0.000000 0.000000 0.000000 0.000000 0.000000 0.000000 10.000000 
Rope3_Seg02 0.000000 0.000000 0.000000 0.000000 0.000000 0.000000 10.000000 
Rope3_Seg03 0.000000 0.000000 0.000000 0.000000 0.000000 0.000000 10.000000 
Rope3_Seg04 0.000000 0.000000 0.000000 0.000000 0.000000 0.000000 10.000000 
Rope3_Seg05 0.000000 0.000000 0.000000 0.000000 0.000000 0.000000 10.000000 
Rope3_Seg06 0.000000 0.000000 0.000000 0.000000 0.000000 0.000000 10.000000 
Rope3_Seg07 0.000000 0.000000 0.000000 0.000000 0.000000 0.000000 10.000000 
Rope3_Seg08 0.000000 0.000000 0.000000 0.000000 0.000000 0.000000 10.000000 
Rope3_Seg09 0.000000 0.000000 0.000000 0.000000 0.000000 0.000000 10.000000 
R_rear_hand01 0.000000 0.000000 0.000000 0.000000 0.000000 0.000000 10.000000 
R_rear_hand02 0.000000 0.000000 0.000000 0.000000 0.000000 0.000000 10.000000 
R_rear_hand03 0.000000 0.000000 0.000000 0.000000 0.000000 0.000000 10.000000 
Rope4_Seg01 0.000000 0.000000 0.000000 0.000000 0.000000 0.000000 10.000000 
Rope4_Seg02 0.000000 0.000000 0.000000 0.000000 0.000000 0.000000 10.000000 
Rope4_Seg03 0.000000 0.000000 0.000000 0.000000 0.000000 0.000000 10.000000 
Rope4_Seg04 0.000000 0.000000 0.000000 0.000000 0.000000 0.000000 10.000000 
Rope4_Seg05 0.000000 0.000000 0.000000 0.000000 0.000000 0.000000 10.000000 
Rope4_Seg06 0.000000 0.000000 0.000000 0.000000 0.000000 0.000000 10.000000 
Rope4_Seg07 0.000000 0.000000 0.000000 0.000000 0.000000 0.000000 10.000000 
Rope4_Seg08 0.000000 0.000000 0.000000 0.000000 0.000000 0.000000 10.000000 
Rope4_Seg09 0.000000 0.000000 0.000000 0.000000 0.000000 0.000000 10.000000 
L_rear_hand01 0.000000 0.000000 0.000000 0.000000 0.000000 0.000000 10.000000 
L_rear_hand02 0.000000 0.000000 0.000000 0.000000 0.000000 0.000000 10.000000 
L_rear_hand03 0.000000 0.000000 0.000000 0.000000 0.000000 0.000000 10.000000 
#Beginning of Data. Separated by tabs
#Fr	Tx	Ty	Tz	Rx	Ry	Rz	SF
[MASTER]
1 0.000000 0.000000 0.000000 0.001660 0.001660 0.001660 0.000000
2 0.000000 0.000000 0.000000 0.001660 0.001660 0.001660 0.000000
[root]
1 -16.502302 0.000001 1500.000000 -91.706375 7.188744 -90.037125 1500.090698
2 -15.433481 -0.601413 1499.361938 -91.706375 7.188744 -90.037125 1499.441528
[chest]
1 -84.512650 -34.090519 0.000000 -2.117274 0.462005 -179.268204 91.129311
2 -84.512650 -34.090519 0.000000 -2.117274 0.462005 -179.268204 91.129311
[L_mid_tent01]
1 27.299511 22.177458 -249.918259 -11.212391 7.173965 46.128521 252.381134
2 27.299511 22.177458 -249.918259 -11.212391 7.173965 46.128521 252.381134
[R_mid_tent01]
1 23.228794 24.509907 226.238495 -173.453110 -7.865565 48.320805 228.744751
2 23.228794 24.509907 226.238495 -173.453110 -7.865565 48.320805 228.744751
[spine01]
1 -0.361383 -0.195265 0.000000 -0.000001 -0.000007 22.052340 0.410763
2 -0.361383 -0.195265 0.000000 -0.000001 -0.000007 22.052340 0.410763
[Bip01_Neck]
1 165.484543 71.581718 0.000119 175.896118 1.177290 24.871183 180.302734
2 165.484543 71.581718 0.000119 175.896118 1.177290 24.871185 180.302734
[L_humerus]
1 -13.983130 -135.272980 -120.471481 177.317520 0.814944 177.327347 181.680161
2 -13.983130 -135.272980 -120.471481 177.317520 0.814944 177.327347 181.680161
[R_humerus]
1 -13.983309 -135.273102 125.287651 -179.087967 -0.295690 175.068390 184.909012
2 -13.983309 -135.273102 125.287651 -179.087967 -0.295691 175.068390 184.909012
[weapon_bone]
1 235.964890 -300.705902 0.000000 0.000000 -89.951546 -128.212341 382.234833
2 235.964890 -300.705902 0.000000 0.000000 -89.951546 -128.212341 382.234833
[Bip01_Head]
1 97.775497 22.186661 5.309563 3.366012 3.339071 -18.399078 100.401627
2 97.775497 22.186661 5.309563 3.366011 3.339070 -18.399073 100.401627
[eye_left_bone]
1 -24.626970 125.451866 -64.772606 0.000000 -90.000000 -99.840431 143.318359
2 -24.626970 125.451866 -64.772606 0.000000 -90.000000 -99.840431 143.318359
[eye_right_bone]
1 -24.626970 125.451866 64.327362 0.000000 -89.965736 80.156380 143.117676
2 -24.626970 125.451866 64.327362 0.000000 -89.965736 80.156380 143.117676
[L_forearm]
1 322.776093 0.000000 -0.000119 0.001372 -0.001904 -161.553818 322.776093
2 322.776093 0.000000 -0.000119 0.001372 -0.001904 -161.553818 322.776093
[L_front_hand]
1 241.149185 -0.042021 -3.300071 -179.659958 -2.242151 -0.019832 241.171753
2 241.149185 -0.042021 -3.300071 -179.659958 -2.242151 -0.019832 241.171753
[L_weapon_bone]
1 156.183838 0.000000 0.000000 0.000014 0.000007 0.000001 156.183838
2 156.183838 0.000000 0.000000 0.000014 0.000007 0.000001 156.183838
[L_front_hand01_01]
1 86.095154 20.947098 -0.655860 0.405585 -0.442306 -4.620490 88.609184
2 86.095154 20.947098 -0.655860 0.405585 -0.442306 -4.620490 88.609184
[L_front_hand02_01]
1 86.935165 -11.437475 24.513514 116.959450 3.630817 1.495453 91.046425
2 86.935165 -11.437475 24.513514 116.959450 3.630817 1.495453 91.046425
[L_front_hand03_01]
1 86.637497 -14.123976 -20.424902 -118.419884 -4.660555 -0.155069 90.126129
2 86.637497 -14.123976 -20.424902 -118.419884 -4.660555 -0.155069 90.126129
[L_front_hand01_02]
1 71.020905 -0.000179 0.000030 0.000004 -0.000005 -8.379269 71.020905
2 71.020905 -0.000179 0.000030 0.000004 -0.000005 -8.379269 71.020905
[L_front_hand02_02]
1 71.020927 -0.000119 0.000060 -0.000005 -0.000004 -8.379259 71.020927
2 71.020927 -0.000119 0.000060 -0.000005 -0.000004 -8.379259 71.020927
[L_front_hand03_02]
1 71.020905 -0.000060 0.000060 0.000015 -0.000040 -8.379267 71.020905
2 71.020905 -0.000060 0.000060 0.000015 -0.000040 -8.379267 71.020905
[R_forearm]
1 322.776428 -0.000060 0.000030 0.066610 0.203476 -163.260239 322.776428
2 322.776428 -0.000060 0.000030 0.066610 0.203476 -163.260239 322.776428
[R_front_hand]
1 238.847015 -0.006795 2.210259 -0.270529 1.703932 2.322530 238.857239
2 238.847015 -0.006795 2.210259 -0.270529 1.703932 2.322530 238.857239
[R_weapon_bone]
1 155.664093 0.002503 -0.000030 0.003487 0.001180 -90.988930 155.664078
2 155.664093 0.002503 -0.000030 0.003487 0.001180 -90.988930 155.664078
[R_front_hand01_01]
1 87.624611 14.231146 22.918642 -116.960213 3.496675 -1.324139 91.683487
2 87.624611 14.231146 22.918642 -116.960213 3.496675 -1.324139 91.683487
[R_front_hand02_01]
1 89.356956 14.367283 -19.491137 118.419647 -4.257089 0.609827 92.579636
2 89.356956 14.367283 -19.491137 118.419647 -4.257089 0.609827 92.579636
[R_front_hand03_01]
1 87.286232 -22.307278 -0.143439 -0.387970 -0.231462 4.232001 90.091743
2 87.286232 -22.307278 -0.143439 -0.387970 -0.231462 4.232001 90.091743
[R_front_hand01_02]
1 71.020905 0.000060 0.000119 -0.000005 -0.000020 8.379271 71.020905
2 71.020905 0.000060 0.000119 -0.000005 -0.000020 8.379271 71.020905
[R_front_hand02_02]
1 71.020844 -0.000030 -0.000119 0.000000 -0.000021 8.379271 71.020836
2 71.020844 -0.000030 -0.000119 0.000000 -0.000021 8.379271 71.020836
[R_front_hand03_02]
1 71.020905 0.000000 0.000030 -0.000001 -0.000020 8.379275 71.020905
2 71.020905 0.000000 0.000030 -0.000001 -0.000020 8.379275 71.020905
[null_rope01_connect]
1 328.732483 0.000000 -0.000238 160.552872 -75.066147 -124.625038 328.732483
2 328.732483 0.000000 -0.000238 160.552872 -75.066147 -124.625038 328.732483
[Rope1_Seg01]
1 0.000000 0.000000 0.000000 -98.852509 55.941433 -100.242401 0.000000
2 0.000000 0.000000 0.000000 -99.029533 55.589611 -100.545212 0.000000
[Rope1_Seg02]
1 139.999863 -0.000179 0.000000 19.364283 -6.535012 -10.753860 139.999863
2 139.999863 -0.000179 0.000000 20.678242 -7.608533 -10.931360 139.999863
[Rope1_Seg03]
1 139.999924 0.000060 -0.000060 12.400914 -7.946768 -4.064889 139.999924
2 139.999924 0.000060 -0.000060 12.653328 -8.930031 -3.820555 139.999924
[Rope1_Seg04]
1 139.999924 -0.000060 -0.000119 6.454575 -7.059798 -0.208319 139.999924
2 139.999924 -0.000060 -0.000119 6.357541 -7.747234 0.106934 139.999924
[Rope1_Seg05]
1 139.999832 0.000119 -0.000060 2.014454 0.581043 -3.119654 139.999832
2 139.999832 0.000119 -0.000060 1.555349 0.768718 -2.926302 139.999832
[Rope1_Seg06]
1 139.999954 0.000119 -0.000060 0.031705 8.126924 -9.780478 139.999954
2 139.999954 0.000119 -0.000060 -1.966207 9.411693 -9.725340 139.999954
[Rope1_Seg07]
1 139.999985 0.000060 0.000000 3.148817 13.246746 -16.015306 139.999985
2 139.999985 0.000060 0.000000 -26.859827 16.480045 -16.110153 139.999985
[Rope1_Seg09]
1 121.602913 0.000119 -0.000089 -89.793175 -1.359789 0.847147 121.602913
2 121.602913 0.000119 -0.000089 -89.793175 -1.359789 0.847147 121.602913
[L_mid_hand01]
1 103.859421 1.038730 8.195221 106.855484 -31.239275 -9.461397 104.187431
2 103.859421 1.038730 8.195221 106.855484 -31.239275 -9.461397 104.187431
[L_mid_hand02]
1 105.572853 -4.139662 -10.864139 -142.331345 25.752670 -28.774628 106.211075
2 105.572853 -4.139662 -10.864139 -142.331345 25.752670 -28.774628 106.211075
[L_mid_hand03]
1 104.641464 17.579376 -3.913581 -16.122810 9.734291 34.223598 106.179977
2 104.641464 17.579376 -3.913581 -16.122810 9.734291 34.223598 106.179977
[null_rope02_connect]
1 328.732849 0.000179 -0.000119 174.610336 81.478409 -39.424759 328.732849
2 328.732849 0.000179 -0.000119 174.610336 81.478409 -39.424759 328.732849
[Rope2_Seg01]
1 0.000076 0.000110 0.000153 116.779694 48.388214 -111.563545 0.000203
2 0.000076 0.000110 0.000153 117.901062 48.151489 -109.929161 0.000203
[Rope2_Seg02]
1 139.999741 -0.000060 -0.000119 -0.344077 11.771005 -5.763832 139.999756
2 139.999741 -0.000060 -0.000119 -0.545287 10.592233 -4.664420 139.999756
[Rope2_Seg03]
1 140.000107 0.000030 0.000000 4.409033 9.509239 -9.018511 140.000107
2 140.000107 0.000030 0.000000 2.568448 7.819546 -6.540366 140.000107
[Rope2_Seg04]
1 139.999802 0.000000 -0.000060 -10.040998 13.571065 -0.871125 139.999802
2 139.999802 0.000000 -0.000060 -8.425353 13.970372 -1.452117 139.999802
[Rope2_Seg05]
1 139.999985 -0.000060 0.000119 -13.243361 4.680521 3.988754 139.999985
2 139.999985 -0.000060 0.000119 -9.519202 5.159692 2.254627 139.999985
[Rope2_Seg06]
1 139.999893 -0.000030 -0.000119 -4.616262 1.646683 1.266923 139.999893
2 139.999893 -0.000030 -0.000119 -3.622304 1.866343 0.754250 139.999893
[Rope2_Seg07]
1 139.999893 0.000060 -0.000060 -2.929987 0.932686 0.808985 139.999893
2 139.999893 0.000060 -0.000060 -2.397368 1.090819 0.513112 139.999893
[Rope2_Seg09]
1 121.338966 0.000089 -0.000060 33.793236 -1.359788 -0.847141 121.338966
2 121.338966 0.000089 -0.000060 33.793236 -1.359788 -0.847141 121.338966
[R_mid_hand01]
1 104.680779 11.144459 -10.335981 -41.523792 25.424656 28.595957 105.778534
2 104.680779 11.144459 -10.335981 -41.523792 25.424656 28.595957 105.778534
[R_mid_hand02]
1 104.070427 2.443552 8.231699 72.847389 -32.746803 10.013901 104.424065
2 104.070427 2.443552 8.231699 72.847389 -32.746803 10.013901 104.424065
[R_mid_hand03]
1 106.028137 -11.221827 -5.996406 -167.901306 10.259192 -37.009720 106.788818
2 106.028137 -11.221827 -5.996406 -167.901306 10.259192 -37.009720 106.788818
[spine02]
1 129.756927 0.001550 0.000119 0.360061 -4.044797 -12.915058 129.756927
2 129.756927 0.001550 0.000119 0.360061 -4.044796 -12.915055 129.756927
[spine03]
1 78.613846 0.087372 -4.898873 1.896495 3.831288 16.473045 78.766380
2 78.613846 0.087372 -4.898873 1.896495 3.831288 16.473045 78.766380
[pelvis]
1 169.435242 0.051022 0.000000 -0.060465 -0.180225 14.087930 169.435257
2 169.435242 0.051022 0.000000 -0.060465 -0.180225 14.087931 169.435257
[null_rope03_connect]
1 -1.257226 -2.466202 137.391083 -168.629776 -89.386429 -148.244614 137.418976
2 -1.257226 -2.466202 137.391083 -168.629776 -89.386429 -148.244614 137.418976
[null_rope04_connect]
1 -1.259640 -2.480268 -137.844437 -168.629776 -89.386429 -148.244614 137.872513
2 -1.259640 -2.480268 -137.844437 -168.629776 -89.386429 -148.244614 137.872513
[Rope3_Seg01]
1 0.000000 0.000000 0.000000 -131.074493 7.353088 -80.568375 0.000000
2 0.000000 0.000000 0.000000 -130.937622 8.667190 -78.698311 0.000000
[Rope3_Seg02]
1 139.999924 -0.000119 0.000060 0.036665 3.431196 8.441617 139.999924
2 139.999924 -0.000119 0.000060 0.285389 4.469682 8.146650 139.999924
[Rope3_Seg03]
1 139.999924 -0.000119 0.000119 0.216837 6.006667 11.367885 139.999924
2 139.999924 -0.000119 0.000119 0.857728 7.407224 11.037045 139.999924
[Rope3_Seg04]
1 139.999924 0.000119 0.000000 1.803824 10.484582 15.451448 139.999924
2 139.999924 0.000119 0.000000 3.788901 12.676724 15.075348 139.999924
[Rope3_Seg05]
1 139.999924 -0.000238 0.000060 -7.154263 -14.721015 -3.780864 139.999924
2 139.999924 -0.000238 0.000060 -8.438320 -14.693665 -1.948721 139.999924
[Rope3_Seg06]
1 139.999893 -0.000119 -0.000060 -1.197811 -17.344027 -11.714458 139.999893
2 139.999893 -0.000119 -0.000060 -2.448794 -18.062027 -9.860859 139.999893
[Rope3_Seg07]
1 139.999771 0.000060 -0.000119 0.115063 -7.090425 -4.069560 139.999771
2 139.999771 0.000060 -0.000119 -0.203624 -7.208386 -3.430096 139.999771
[Rope3_Seg08]
1 139.999985 -0.000060 0.000000 0.460673 -4.060983 -2.335831 139.999985
2 139.999985 -0.000060 0.000000 0.311135 -4.129056 -1.994169 139.999985
[Rope3_Seg09]
1 90.185997 -0.000179 -0.000060 89.793228 -1.359877 -0.847183 90.185997
2 90.185997 -0.000179 -0.000060 89.793228 -1.359877 -0.847183 90.185997
[R_rear_hand01]
1 103.366196 -6.073594 -10.757982 -161.551193 16.666374 -30.088671 104.101845
2 103.366196 -6.073594 -10.757982 -161.551193 16.666374 -30.088671 104.101845
[R_rear_hand02]
1 100.509819 12.039542 -7.992327 -34.280552 19.289745 28.875523 101.543350
2 100.509819 12.039542 -7.992327 -34.280552 19.289745 28.875523 101.543350
[R_rear_hand03]
1 101.539970 5.215704 5.435467 83.366440 -30.933914 7.284830 101.819031
2 101.539970 5.215704 5.435467 83.366440 -30.933914 7.284830 101.819031
[Rope4_Seg01]
1 0.000010 0.000038 -0.000114 54.478306 28.941742 -88.986053 0.000121
2 0.000010 0.000038 -0.000114 55.329498 28.082611 -86.281616 0.000121
[Rope4_Seg02]
1 139.999985 0.000060 0.000119 0.184669 -5.898354 -2.974579 139.999985
2 139.999985 0.000060 0.000119 0.489710 -6.269242 -4.023150 139.999985
[Rope4_Seg03]
1 139.999924 0.000000 -0.000238 0.312121 -7.118320 -3.794341 139.999924
2 139.999924 0.000000 -0.000238 0.549253 -7.474772 -4.962283 139.999924
[Rope4_Seg04]
1 139.999985 0.000000 0.000119 1.006550 -12.561728 -10.372855 139.999985
2 139.999985 0.000000 0.000119 1.068145 -12.262549 -11.518183 139.999985
[Rope4_Seg05]
1 139.999802 -0.000060 -0.000119 0.825724 -2.460088 3.105844 139.999802
2 139.999802 -0.000060 -0.000119 0.684530 -3.081413 1.838667 139.999802
[Rope4_Seg06]
1 139.999924 0.000000 0.000060 2.503428 10.134960 19.066103 139.999924
2 139.999924 0.000000 0.000060 2.476873 8.169609 17.724115 139.999924
[Rope4_Seg07]
1 139.999802 0.000000 0.000000 -0.773445 5.421988 11.227660 139.999802
2 139.999802 0.000000 0.000000 -0.381618 4.640571 11.001554 139.999802
[Rope4_Seg08]
1 139.999924 0.000000 0.000119 -2.808104 2.731420 6.435670 139.999924
2 139.999924 0.000000 0.000119 -2.491312 2.314611 6.332422 139.999924
[Rope4_Seg09]
1 90.185791 0.000060 0.000060 -135.617828 2.228885 0.850567 90.185791
2 90.185791 0.000060 0.000060 -135.617828 2.228885 0.850567 90.185791
[L_rear_hand01]
1 101.696655 -8.392275 -7.654577 -34.454281 -18.946800 151.655121 102.329041
2 101.696655 -8.392275 -7.654577 -34.454281 -18.946800 151.655121 102.329041
[L_rear_hand02]
1 102.726799 -1.568258 5.773216 83.407906 30.330435 172.796509 102.900848
2 102.726799 -1.568258 5.773216 83.407906 30.330435 172.796509 102.900848
[L_rear_hand03]
1 104.552910 9.721220 -10.420293 -161.379868 -16.473232 -150.512238 105.519653
2 104.552910 9.721220 -10.420293 -161.379868 -16.473232 -150.512238 105.519653
